<?xml version="1.0" standalone="no"?>
<!DOCTYPE svg PUBLIC "-//W3C//DTD SVG 20010904//EN"
 "http://www.w3.org/TR/2001/REC-SVG-20010904/DTD/svg10.dtd">
<svg version="1.0" xmlns="http://www.w3.org/2000/svg"
 width="752.000000pt" height="752.000000pt" viewBox="0 0 752.000000 752.000000"
 preserveAspectRatio="xMidYMid meet">

<g transform="translate(0.000000,752.000000) scale(0.100000,-0.100000)"
fill="#000000" stroke="none">
<path d="M2018 5874 c-184 -44 -341 -199 -377 -372 -8 -37 -11 -433 -11 -1330
0 -1372 -2 -1320 51 -1429 31 -66 150 -182 221 -216 103 -49 154 -57 380 -57
l208 0 0 -376 c0 -330 2 -379 16 -404 30 -50 88 -71 152 -53 13 3 270 192 570
419 l546 414 836 0 c910 0 889 -1 1010 57 68 33 186 150 219 216 53 109 51 57
51 1429 0 897 -3 1293 -11 1330 -37 176 -193 329 -381 373 -91 21 -3392 21
-3480 -1z m3449 -239 c62 -18 139 -84 164 -140 18 -38 19 -100 19 -1306 0
-937 -3 -1275 -12 -1300 -29 -86 -99 -149 -194 -174 -50 -13 -178 -15 -912
-15 -548 0 -860 -4 -872 -10 -10 -5 -220 -163 -467 -350 l-448 -341 -5 313
c-5 331 -6 337 -54 369 -16 11 -86 15 -311 19 -267 5 -294 7 -336 26 -62 29
-114 76 -138 128 -21 42 -21 49 -21 1322 0 1225 1 1281 19 1319 27 58 91 115
153 136 51 18 127 18 1709 19 1441 0 1662 -2 1706 -15z"/>
<path d="M3810 4195 l0 -695 140 0 140 0 0 270 0 270 188 0 c292 -1 299 -7
313 -290 4 -91 13 -184 20 -207 l11 -43 159 0 c139 0 159 2 159 16 0 9 -11 25
-25 36 -35 27 -45 76 -45 213 0 236 -32 324 -135 377 l-39 20 39 20 c61 31
110 84 142 152 24 54 28 73 28 161 0 94 -2 105 -34 170 -44 90 -112 157 -188
185 -87 32 -188 40 -545 40 l-328 0 0 -695z m731 417 c49 -30 72 -81 73 -162
1 -80 -22 -124 -79 -154 -36 -19 -60 -21 -242 -24 l-203 -4 0 187 0 186 208
-3 c195 -3 209 -4 243 -26z"/>
<path d="M2510 4760 l0 -120 205 0 205 0 0 -570 0 -570 150 0 150 0 0 570 0
570 205 0 205 0 0 120 0 120 -560 0 -560 0 0 -120z"/>
</g>
</svg>
